<svg width="300" height="168" viewBox="0 0 300 168" fill="none" xmlns="http://www.w3.org/2000/svg">
<path d="M90.3313 152.208V154H72.7953V152.208L76.3153 151.76C76.9979 151.675 77.4033 151.504 77.5312 151.248C77.6593 150.949 77.7233 150.075 77.7233 148.624V133.136H60.8913V148.624C60.8913 150.075 60.9553 150.949 61.0833 151.248C61.2113 151.504 61.6166 151.675 62.2993 151.76L65.8193 152.208V154H48.2833V152.208L51.8033 151.76C52.4859 151.675 52.8913 151.504 53.0193 151.248C53.1473 150.949 53.2113 150.075 53.2113 148.624V115.856C53.2113 114.405 53.1473 113.552 53.0193 113.296C52.8913 112.997 52.4859 112.805 51.8033 112.72L48.2833 112.272V110.48H65.8193V112.272L62.2993 112.72C61.6166 112.805 61.2113 112.997 61.0833 113.296C60.9553 113.552 60.8913 114.405 60.8913 115.856V130.896H77.7233V115.856C77.7233 114.405 77.6593 113.552 77.5312 113.296C77.4033 112.997 76.9979 112.805 76.3153 112.72L72.7953 112.272V110.48H90.3313V112.272L86.8113 112.72C86.1286 112.805 85.7233 112.997 85.5953 113.296C85.4673 113.552 85.4033 114.405 85.4033 115.856V148.624C85.4033 150.075 85.4673 150.949 85.5953 151.248C85.7233 151.504 86.1286 151.675 86.8113 151.76L90.3313 152.208ZM132.006 130.192V134.224C132.006 140.795 130.534 145.851 127.59 149.392C124.688 152.891 120.379 154.64 114.662 154.64C108.944 154.64 104.614 152.891 101.67 149.392C98.7684 145.851 97.3177 140.795 97.3177 134.224V130.192C97.3177 123.621 98.7684 118.587 101.67 115.088C104.614 111.589 108.944 109.84 114.662 109.84C120.379 109.84 124.688 111.589 127.59 115.088C130.534 118.587 132.006 123.621 132.006 130.192ZM123.814 126.992C123.814 123.237 123.494 120.293 122.854 118.16C122.214 115.984 121.211 114.427 119.846 113.488C118.523 112.549 116.795 112.08 114.662 112.08C112.571 112.08 110.843 112.549 109.478 113.488C108.112 114.427 107.11 115.984 106.47 118.16C105.83 120.293 105.51 123.237 105.51 126.992V137.424C105.51 141.136 105.83 144.08 106.47 146.256C107.11 148.432 108.112 150.011 109.478 150.992C110.843 151.931 112.571 152.4 114.662 152.4C116.795 152.4 118.523 151.931 119.846 150.992C121.211 150.011 122.214 148.432 122.854 146.256C123.494 144.08 123.814 141.136 123.814 137.424V126.992ZM165.723 112.272V110.48H178.139V112.272L174.619 112.72C173.936 112.805 173.531 112.997 173.403 113.296C173.275 113.552 173.211 114.405 173.211 115.856V139.216C173.211 144.336 172.123 148.197 169.947 150.8C167.813 153.36 164.528 154.64 160.091 154.64C154.928 154.64 150.768 153.232 147.611 150.416C144.453 147.6 142.875 143.547 142.875 138.256V115.856C142.875 114.405 142.811 113.552 142.683 113.296C142.555 112.997 142.149 112.805 141.467 112.72L137.947 112.272V110.48H155.483V112.272L151.963 112.72C151.28 112.805 150.875 112.997 150.747 113.296C150.619 113.552 150.555 114.405 150.555 115.856V138.704C150.555 143.483 151.429 146.939 153.179 149.072C154.928 151.205 157.424 152.272 160.667 152.272C163.824 152.272 166.277 151.269 168.027 149.264C169.776 147.216 170.651 143.909 170.651 139.344V115.856C170.651 114.405 170.587 113.552 170.459 113.296C170.331 112.997 169.925 112.805 169.243 112.72L165.723 112.272ZM197.569 152.4C200.129 152.4 202.241 151.803 203.905 150.608C205.611 149.371 206.465 147.451 206.465 144.848C206.465 142.928 205.889 141.328 204.737 140.048C203.627 138.768 201.622 137.701 198.721 136.848L192.769 135.056C189.782 134.16 187.478 132.624 185.857 130.448C184.278 128.229 183.489 125.477 183.489 122.192C183.489 120.016 183.979 117.989 184.961 116.112C185.985 114.235 187.521 112.72 189.569 111.568C191.659 110.416 194.283 109.84 197.441 109.84C200.897 109.84 203.691 110.48 205.825 111.76C207.958 112.997 209.451 114.619 210.305 116.624C211.158 118.629 211.371 120.784 210.945 123.088L203.585 124.432C204.267 120.464 203.969 117.413 202.689 115.28C201.451 113.147 199.425 112.08 196.609 112.08C194.433 112.08 192.683 112.72 191.361 114C190.081 115.28 189.441 117.115 189.441 119.504C189.441 121.467 189.995 123.195 191.105 124.688C192.257 126.181 194.134 127.333 196.737 128.144L202.689 129.936C205.931 130.875 208.363 132.304 209.985 134.224C211.606 136.101 212.417 138.725 212.417 142.096C212.417 144.485 211.862 146.64 210.753 148.56C209.686 150.437 208.043 151.931 205.825 153.04C203.649 154.107 200.918 154.64 197.633 154.64C195.243 154.64 192.982 154.299 190.849 153.616C188.715 152.891 186.923 151.717 185.473 150.096C184.065 148.475 183.169 146.277 182.785 143.504L187.073 141.968C187.286 144.699 187.883 146.832 188.865 148.368C189.889 149.861 191.147 150.907 192.641 151.504C194.177 152.101 195.819 152.4 197.569 152.4ZM248.546 142.992H250.338V154H218.658V152.208L222.178 151.76C222.861 151.675 223.266 151.504 223.394 151.248C223.522 150.949 223.586 150.075 223.586 148.624V115.856C223.586 114.405 223.522 113.552 223.394 113.296C223.266 112.997 222.861 112.805 222.178 112.72L218.658 112.272V110.48H249.698V121.488H247.906L245.858 114.384C245.73 113.872 245.581 113.509 245.41 113.296C245.282 113.04 245.005 112.891 244.578 112.848C244.152 112.763 243.426 112.72 242.402 112.72H231.266V130.896H238.562C239.586 130.896 240.312 130.875 240.738 130.832C241.165 130.747 241.442 130.597 241.57 130.384C241.741 130.128 241.89 129.744 242.018 129.232L243.426 124.048H245.218V139.984H243.426L242.018 134.8C241.89 134.288 241.741 133.925 241.57 133.712C241.442 133.456 241.165 133.307 240.738 133.264C240.312 133.179 239.586 133.136 238.562 133.136H231.266V151.76H243.042C244.066 151.76 244.792 151.739 245.218 151.696C245.645 151.611 245.922 151.461 246.05 151.248C246.221 150.992 246.37 150.608 246.498 150.096L248.546 142.992Z" fill="black"/>
<path d="M66.2208 21.272V19.48H85.4848C90.1781 19.48 93.6768 20.568 95.9808 22.744C98.3274 24.8773 99.5008 27.736 99.5008 31.32V32.792C99.5008 36.376 98.3274 39.256 95.9808 41.432C93.6768 43.608 90.1781 44.696 85.4848 44.696H78.8288V57.624C78.8288 59.0747 78.8928 59.9493 79.0208 60.248C79.1488 60.504 79.5541 60.6747 80.2368 60.76L85.0368 61.208V63H66.2208V61.208L69.7408 60.76C70.4234 60.6747 70.8288 60.504 70.9568 60.248C71.0848 59.9493 71.1488 59.0747 71.1488 57.624V24.856C71.1488 23.4053 71.0848 22.552 70.9568 22.296C70.8288 21.9973 70.4234 21.8053 69.7408 21.72L66.2208 21.272ZM85.4848 21.72H78.8288V42.456H85.4848C87.3621 42.456 88.7914 41.7093 89.7728 40.216C90.7968 38.7227 91.3088 36.6747 91.3088 34.072V30.04C91.3088 27.4373 90.7968 25.4107 89.7728 23.96C88.7914 22.4667 87.3621 21.72 85.4848 21.72ZM104.471 21.272V19.48H122.007V21.272L118.487 21.72C117.804 21.8053 117.399 21.9973 117.271 22.296C117.143 22.552 117.079 23.4053 117.079 24.856V57.624C117.079 59.0747 117.143 59.9493 117.271 60.248C117.399 60.504 117.804 60.6747 118.487 60.76L122.007 61.208V63H104.471V61.208L107.991 60.76C108.673 60.6747 109.079 60.504 109.207 60.248C109.335 59.9493 109.399 59.0747 109.399 57.624V24.856C109.399 23.4053 109.335 22.552 109.207 22.296C109.079 21.9973 108.673 21.8053 107.991 21.72L104.471 21.272ZM155.501 51.992H157.293V63H127.213V61.4L147.949 21.72H135.533C134.552 21.72 133.827 21.7627 133.357 21.848C132.931 21.8907 132.653 22.04 132.525 22.296C132.397 22.5093 132.248 22.872 132.077 23.384L130.029 30.488H128.237V19.48H156.653V21.08L135.917 60.76H149.997C151.021 60.76 151.747 60.7387 152.173 60.696C152.6 60.6107 152.877 60.4613 153.005 60.248C153.176 59.992 153.325 59.608 153.453 59.096L155.501 51.992ZM190.439 51.992H192.231V63H162.151V61.4L182.887 21.72H170.471C169.489 21.72 168.764 21.7627 168.295 21.848C167.868 21.8907 167.591 22.04 167.463 22.296C167.335 22.5093 167.185 22.872 167.015 23.384L164.967 30.488H163.175V19.48H191.591V21.08L170.855 60.76H184.935C185.959 60.76 186.684 60.7387 187.111 60.696C187.537 60.6107 187.815 60.4613 187.943 60.248C188.113 59.992 188.263 59.608 188.391 59.096L190.439 51.992ZM206.624 61.208V63H194.272V61.208L197.792 60.76C198.262 60.6747 198.603 60.5893 198.816 60.504C199.03 60.376 199.222 60.0987 199.392 59.672C199.563 59.2453 199.798 58.5627 200.096 57.624L212.32 19.48H217.824L230.112 57.624C230.411 58.5627 230.646 59.2453 230.816 59.672C230.987 60.0987 231.179 60.376 231.392 60.504C231.648 60.5893 231.99 60.6747 232.416 60.76L235.936 61.208V63H218.272V61.208L221.792 60.76C222.475 60.6747 222.838 60.504 222.88 60.248C222.966 59.9493 222.774 59.0747 222.304 57.624L219.872 49.688H205.088L202.592 57.624C202.166 59.0747 201.974 59.9493 202.016 60.248C202.059 60.504 202.422 60.6747 203.104 60.76L206.624 61.208ZM205.856 47.448H219.168L212.576 26.2L205.856 47.448Z" fill="black"/>
<rect x="0.5" y="82.5" width="299" height="9" stroke="black"/>
<rect x="1" y="83" width="100" height="8" fill="#009A48"/>
<rect x="200" y="83" width="100" height="8" fill="#D72C39"/>
</svg>
