<svg width="438" height="438" viewBox="0 0 438 438" fill="none" xmlns="http://www.w3.org/2000/svg">
<g clip-path="url(#clip0_281_15)">
<path d="M438 0H0V438H438V0Z" fill="white"/>
<path d="M145.997 302.538V304.749H124.361V302.538L128.704 301.986C129.547 301.881 130.047 301.67 130.205 301.354C130.362 300.985 130.441 299.907 130.441 298.116V279.007H109.674V298.116C109.674 299.907 109.753 300.985 109.911 301.354C110.069 301.67 110.569 301.881 111.412 301.986L115.755 302.538V304.749H94.1187V302.538L98.4616 301.986C99.3038 301.881 99.804 301.67 99.9619 301.354C100.12 300.985 100.199 299.907 100.199 298.116V257.687C100.199 255.897 100.12 254.845 99.9619 254.529C99.804 254.16 99.3038 253.923 98.4616 253.818L94.1187 253.265V251.054H115.755V253.265L111.412 253.818C110.569 253.923 110.069 254.16 109.911 254.529C109.753 254.845 109.674 255.897 109.674 257.687V276.244H130.441V257.687C130.441 255.897 130.362 254.845 130.205 254.529C130.047 254.16 129.547 253.923 128.704 253.818L124.361 253.265V251.054H145.997V253.265L141.654 253.818C140.813 253.923 140.312 254.16 140.154 254.529C139.996 254.845 139.917 255.897 139.917 257.687V298.116C139.917 299.907 139.996 300.985 140.154 301.354C140.312 301.67 140.813 301.881 141.654 301.986L145.997 302.538ZM197.416 275.375V280.35C197.416 288.457 195.6 294.695 191.967 299.064C188.387 303.381 183.071 305.539 176.017 305.539C168.962 305.539 163.62 303.381 159.987 299.064C156.407 294.695 154.618 288.457 154.618 280.35V275.375C154.618 267.268 156.407 261.057 159.987 256.74C163.62 252.423 168.962 250.265 176.017 250.265C183.071 250.265 188.387 252.423 191.967 256.74C195.6 261.057 197.416 267.268 197.416 275.375ZM187.309 271.427C187.309 266.794 186.914 263.162 186.124 260.53C185.335 257.845 184.097 255.924 182.413 254.766C180.781 253.607 178.649 253.028 176.017 253.028C173.437 253.028 171.305 253.607 169.621 254.766C167.935 255.924 166.699 257.845 165.91 260.53C165.12 263.162 164.725 266.794 164.725 271.427V284.298C164.725 288.878 165.12 292.51 165.91 295.195C166.699 297.88 167.935 299.828 169.621 301.038C171.305 302.197 173.437 302.775 176.017 302.775C178.649 302.775 180.781 302.197 182.413 301.038C184.097 299.828 185.335 297.88 186.124 295.195C186.914 292.51 187.309 288.878 187.309 284.298V271.427ZM239.016 253.265V251.054H254.335V253.265L249.992 253.818C249.149 253.923 248.65 254.16 248.492 254.529C248.334 254.845 248.255 255.897 248.255 257.687V286.509C248.255 292.826 246.912 297.59 244.228 300.801C241.595 303.96 237.542 305.539 232.067 305.539C225.697 305.539 220.565 303.802 216.669 300.327C212.773 296.853 210.826 291.852 210.826 285.324V257.687C210.826 255.897 210.747 254.845 210.589 254.529C210.431 254.16 209.93 253.923 209.089 253.818L204.746 253.265V251.054H226.382V253.265L222.039 253.818C221.196 253.923 220.697 254.16 220.539 254.529C220.381 254.845 220.302 255.897 220.302 257.687V285.877C220.302 291.773 221.38 296.038 223.539 298.669C225.697 301.301 228.777 302.617 232.778 302.617C236.673 302.617 239.7 301.38 241.859 298.906C244.017 296.379 245.096 292.299 245.096 286.667V257.687C245.096 255.897 245.017 254.845 244.859 254.529C244.701 254.16 244.201 253.923 243.359 253.818L239.016 253.265ZM278.308 302.775C281.466 302.775 284.072 302.039 286.125 300.564C288.23 299.038 289.284 296.669 289.284 293.458C289.284 291.089 288.573 289.115 287.152 287.535C285.782 285.956 283.308 284.64 279.729 283.587L272.385 281.376C268.7 280.271 265.857 278.376 263.857 275.691C261.909 272.953 260.936 269.558 260.936 265.505C260.936 262.82 261.54 260.319 262.752 258.003C264.015 255.687 265.911 253.818 268.437 252.397C271.016 250.975 274.253 250.265 278.15 250.265C282.414 250.265 285.861 251.054 288.494 252.634C291.126 254.16 292.968 256.161 294.021 258.635C295.074 261.109 295.337 263.767 294.811 266.61L285.73 268.268C286.572 263.373 286.204 259.608 284.625 256.977C283.097 254.345 280.598 253.028 277.123 253.028C274.439 253.028 272.279 253.818 270.648 255.397C269.069 256.977 268.279 259.241 268.279 262.188C268.279 264.61 268.963 266.742 270.332 268.584C271.754 270.426 274.07 271.848 277.281 272.848L284.625 275.059C288.625 276.218 291.625 277.981 293.627 280.35C295.627 282.666 296.627 285.903 296.627 290.062C296.627 293.01 295.943 295.669 294.574 298.037C293.258 300.353 291.231 302.197 288.494 303.565C285.809 304.881 282.44 305.539 278.387 305.539C275.438 305.539 272.648 305.118 270.017 304.276C267.384 303.381 265.173 301.933 263.384 299.933C261.646 297.933 260.541 295.221 260.067 291.799L265.358 289.904C265.621 293.274 266.357 295.905 267.569 297.801C268.832 299.643 270.384 300.933 272.228 301.67C274.123 302.406 276.149 302.775 278.308 302.775ZM341.203 291.168H343.414V304.749H304.327V302.538L308.67 301.986C309.513 301.881 310.013 301.67 310.171 301.354C310.329 300.985 310.408 299.907 310.408 298.116V257.687C310.408 255.897 310.329 254.845 310.171 254.529C310.013 254.16 309.513 253.923 308.67 253.818L304.327 253.265V251.054H342.625V264.636H340.414L337.887 255.871C337.729 255.239 337.545 254.791 337.334 254.529C337.176 254.213 336.834 254.029 336.308 253.976C335.782 253.871 334.886 253.818 333.623 253.818H319.883V276.244H328.885C330.148 276.244 331.044 276.218 331.57 276.165C332.097 276.06 332.438 275.875 332.596 275.612C332.807 275.296 332.991 274.822 333.149 274.191L334.886 267.795H337.097V287.456H334.886L333.149 281.06C332.991 280.429 332.807 279.981 332.596 279.718C332.438 279.402 332.097 279.218 331.57 279.165C331.044 279.06 330.148 279.007 328.885 279.007H319.883V301.986H334.412C335.676 301.986 336.572 301.96 337.097 301.907C337.624 301.802 337.966 301.617 338.124 301.354C338.335 301.038 338.519 300.564 338.676 299.933L341.203 291.168Z" fill="black"/>
<path d="M116.25 140.989V138.778H140.018C145.808 138.778 150.126 140.121 152.968 142.805C155.863 145.437 157.311 148.965 157.311 153.387V155.203C157.311 159.625 155.863 163.178 152.968 165.863C150.126 168.548 145.808 169.89 140.018 169.89H131.806V185.84C131.806 187.631 131.885 188.709 132.043 189.078C132.201 189.394 132.701 189.605 133.543 189.71L139.465 190.262V192.473H116.25V190.262L120.593 189.71C121.435 189.605 121.935 189.394 122.093 189.078C122.251 188.709 122.33 187.631 122.33 185.84V145.411C122.33 143.621 122.251 142.569 122.093 142.253C121.935 141.884 121.435 141.647 120.593 141.542L116.25 140.989ZM140.018 141.542H131.806V167.126H140.018C142.334 167.126 144.097 166.205 145.309 164.362C146.572 162.52 147.204 159.994 147.204 156.782V151.807C147.204 148.596 146.572 146.096 145.309 144.306C144.097 142.464 142.334 141.542 140.018 141.542ZM163.443 140.989V138.778H185.079V140.989L180.736 141.542C179.893 141.647 179.394 141.884 179.236 142.253C179.078 142.569 178.999 143.621 178.999 145.411V185.84C178.999 187.631 179.078 188.709 179.236 189.078C179.394 189.394 179.893 189.605 180.736 189.71L185.079 190.262V192.473H163.443V190.262L167.786 189.71C168.628 189.605 169.129 189.394 169.286 189.078C169.444 188.709 169.523 187.631 169.523 185.84V145.411C169.523 143.621 169.444 142.569 169.286 142.253C169.129 141.884 168.628 141.647 167.786 141.542L163.443 140.989ZM226.404 178.892H228.615V192.473H191.502V190.499L217.086 141.542H201.768C200.557 141.542 199.663 141.595 199.083 141.7C198.557 141.753 198.214 141.937 198.056 142.253C197.898 142.516 197.715 142.963 197.504 143.595L194.977 152.36H192.766V138.778H227.826V140.752L202.241 189.71H219.613C220.877 189.71 221.772 189.684 222.298 189.631C222.825 189.526 223.167 189.341 223.325 189.078C223.536 188.762 223.719 188.288 223.877 187.657L226.404 178.892ZM269.511 178.892H271.722V192.473H234.609V190.499L260.193 141.542H244.874C243.663 141.542 242.768 141.595 242.189 141.7C241.663 141.753 241.321 141.937 241.163 142.253C241.005 142.516 240.82 142.963 240.61 143.595L238.083 152.36H235.872V138.778H270.932V140.752L245.348 189.71H262.72C263.983 189.71 264.878 189.684 265.405 189.631C265.93 189.526 266.273 189.341 266.431 189.078C266.641 188.762 266.826 188.288 266.984 187.657L269.511 178.892ZM289.48 190.262V192.473H274.24V190.262L278.583 189.71C279.163 189.605 279.584 189.499 279.846 189.394C280.11 189.236 280.347 188.894 280.557 188.367C280.768 187.84 281.058 186.999 281.426 185.84L296.508 138.778H303.298L318.459 185.84C318.828 186.999 319.118 187.84 319.328 188.367C319.539 188.894 319.776 189.236 320.039 189.394C320.355 189.499 320.777 189.605 321.302 189.71L325.645 190.262V192.473H303.851V190.262L308.194 189.71C309.037 189.605 309.485 189.394 309.537 189.078C309.643 188.709 309.406 187.631 308.826 185.84L305.825 176.049H287.585L284.505 185.84C283.98 187.631 283.743 188.709 283.795 189.078C283.848 189.394 284.295 189.605 285.137 189.71L289.48 190.262ZM288.532 173.285H304.957L296.823 147.069L288.532 173.285Z" fill="black"/>
<path d="M404.07 216.532H35.1633V227.636H404.07V216.532Z" stroke="black"/>
<path d="M159.161 217.149H35.7803V227.02H159.161V217.149Z" fill="#009A48"/>
<path d="M404.687 217.149H281.307V227.02H404.687V217.149Z" fill="#D72C39"/>
</g>
<defs>
<clipPath id="clip0_281_15">
<rect width="438" height="438" rx="219" fill="white"/>
</clipPath>
</defs>
</svg>
