<svg width="355" height="355" viewBox="0 0 355 355" fill="none" xmlns="http://www.w3.org/2000/svg">
<rect width="355" height="355" fill="white"/>
<path d="M118.331 245.208V247H100.795V245.208L104.315 244.76C104.998 244.675 105.403 244.504 105.531 244.248C105.659 243.949 105.723 243.075 105.723 241.624V226.136H88.8913V241.624C88.8913 243.075 88.9553 243.949 89.0833 244.248C89.2113 244.504 89.6166 244.675 90.2993 244.76L93.8193 245.208V247H76.2833V245.208L79.8033 244.76C80.4859 244.675 80.8913 244.504 81.0193 244.248C81.1473 243.949 81.2113 243.075 81.2113 241.624V208.856C81.2113 207.405 81.1473 206.552 81.0193 206.296C80.8913 205.997 80.4859 205.805 79.8033 205.72L76.2833 205.272V203.48H93.8193V205.272L90.2993 205.72C89.6166 205.805 89.2113 205.997 89.0833 206.296C88.9553 206.552 88.8913 207.405 88.8913 208.856V223.896H105.723V208.856C105.723 207.405 105.659 206.552 105.531 206.296C105.403 205.997 104.998 205.805 104.315 205.72L100.795 205.272V203.48H118.331V205.272L114.811 205.72C114.129 205.805 113.723 205.997 113.595 206.296C113.467 206.552 113.403 207.405 113.403 208.856V241.624C113.403 243.075 113.467 243.949 113.595 244.248C113.723 244.504 114.129 244.675 114.811 244.76L118.331 245.208ZM160.006 223.192V227.224C160.006 233.795 158.534 238.851 155.59 242.392C152.688 245.891 148.379 247.64 142.662 247.64C136.944 247.64 132.614 245.891 129.67 242.392C126.768 238.851 125.318 233.795 125.318 227.224V223.192C125.318 216.621 126.768 211.587 129.67 208.088C132.614 204.589 136.944 202.84 142.662 202.84C148.379 202.84 152.688 204.589 155.59 208.088C158.534 211.587 160.006 216.621 160.006 223.192ZM151.814 219.992C151.814 216.237 151.494 213.293 150.854 211.16C150.214 208.984 149.211 207.427 147.846 206.488C146.523 205.549 144.795 205.08 142.662 205.08C140.571 205.08 138.843 205.549 137.478 206.488C136.112 207.427 135.11 208.984 134.47 211.16C133.83 213.293 133.51 216.237 133.51 219.992V230.424C133.51 234.136 133.83 237.08 134.47 239.256C135.11 241.432 136.112 243.011 137.478 243.992C138.843 244.931 140.571 245.4 142.662 245.4C144.795 245.4 146.523 244.931 147.846 243.992C149.211 243.011 150.214 241.432 150.854 239.256C151.494 237.08 151.814 234.136 151.814 230.424V219.992ZM193.723 205.272V203.48H206.139V205.272L202.619 205.72C201.936 205.805 201.531 205.997 201.403 206.296C201.275 206.552 201.211 207.405 201.211 208.856V232.216C201.211 237.336 200.123 241.197 197.947 243.8C195.813 246.36 192.528 247.64 188.091 247.64C182.928 247.64 178.768 246.232 175.611 243.416C172.453 240.6 170.875 236.547 170.875 231.256V208.856C170.875 207.405 170.811 206.552 170.683 206.296C170.555 205.997 170.149 205.805 169.467 205.72L165.947 205.272V203.48H183.483V205.272L179.963 205.72C179.28 205.805 178.875 205.997 178.747 206.296C178.619 206.552 178.555 207.405 178.555 208.856V231.704C178.555 236.483 179.429 239.939 181.179 242.072C182.928 244.205 185.424 245.272 188.667 245.272C191.824 245.272 194.277 244.269 196.027 242.264C197.776 240.216 198.651 236.909 198.651 232.344V208.856C198.651 207.405 198.587 206.552 198.459 206.296C198.331 205.997 197.925 205.805 197.243 205.72L193.723 205.272ZM225.569 245.4C228.129 245.4 230.241 244.803 231.905 243.608C233.611 242.371 234.465 240.451 234.465 237.848C234.465 235.928 233.889 234.328 232.737 233.048C231.627 231.768 229.622 230.701 226.721 229.848L220.769 228.056C217.782 227.16 215.478 225.624 213.857 223.448C212.278 221.229 211.489 218.477 211.489 215.192C211.489 213.016 211.979 210.989 212.961 209.112C213.985 207.235 215.521 205.72 217.569 204.568C219.659 203.416 222.283 202.84 225.441 202.84C228.897 202.84 231.691 203.48 233.825 204.76C235.958 205.997 237.451 207.619 238.305 209.624C239.158 211.629 239.371 213.784 238.945 216.088L231.585 217.432C232.267 213.464 231.969 210.413 230.689 208.28C229.451 206.147 227.425 205.08 224.609 205.08C222.433 205.08 220.683 205.72 219.361 207C218.081 208.28 217.441 210.115 217.441 212.504C217.441 214.467 217.995 216.195 219.105 217.688C220.257 219.181 222.134 220.333 224.737 221.144L230.689 222.936C233.931 223.875 236.363 225.304 237.985 227.224C239.606 229.101 240.417 231.725 240.417 235.096C240.417 237.485 239.862 239.64 238.753 241.56C237.686 243.437 236.043 244.931 233.825 246.04C231.649 247.107 228.918 247.64 225.633 247.64C223.243 247.64 220.982 247.299 218.849 246.616C216.715 245.891 214.923 244.717 213.473 243.096C212.065 241.475 211.169 239.277 210.785 236.504L215.073 234.968C215.286 237.699 215.883 239.832 216.865 241.368C217.889 242.861 219.147 243.907 220.641 244.504C222.177 245.101 223.819 245.4 225.569 245.4ZM276.546 235.992H278.338V247H246.658V245.208L250.178 244.76C250.861 244.675 251.266 244.504 251.394 244.248C251.522 243.949 251.586 243.075 251.586 241.624V208.856C251.586 207.405 251.522 206.552 251.394 206.296C251.266 205.997 250.861 205.805 250.178 205.72L246.658 205.272V203.48H277.698V214.488H275.906L273.858 207.384C273.73 206.872 273.581 206.509 273.41 206.296C273.282 206.04 273.005 205.891 272.578 205.848C272.152 205.763 271.426 205.72 270.402 205.72H259.266V223.896H266.562C267.586 223.896 268.312 223.875 268.738 223.832C269.165 223.747 269.442 223.597 269.57 223.384C269.741 223.128 269.89 222.744 270.018 222.232L271.426 217.048H273.218V232.984H271.426L270.018 227.8C269.89 227.288 269.741 226.925 269.57 226.712C269.442 226.456 269.165 226.307 268.738 226.264C268.312 226.179 267.586 226.136 266.562 226.136H259.266V244.76H271.042C272.066 244.76 272.792 244.739 273.218 244.696C273.645 244.611 273.922 244.461 274.05 244.248C274.221 243.992 274.37 243.608 274.498 243.096L276.546 235.992Z" fill="black"/>
<path d="M94.2208 114.272V112.48H113.485C118.178 112.48 121.677 113.568 123.981 115.744C126.327 117.877 127.501 120.736 127.501 124.32V125.792C127.501 129.376 126.327 132.256 123.981 134.432C121.677 136.608 118.178 137.696 113.485 137.696H106.829V150.624C106.829 152.075 106.893 152.949 107.021 153.248C107.149 153.504 107.554 153.675 108.237 153.76L113.037 154.208V156H94.2208V154.208L97.7408 153.76C98.4234 153.675 98.8288 153.504 98.9568 153.248C99.0848 152.949 99.1488 152.075 99.1488 150.624V117.856C99.1488 116.405 99.0848 115.552 98.9568 115.296C98.8288 114.997 98.4234 114.805 97.7408 114.72L94.2208 114.272ZM113.485 114.72H106.829V135.456H113.485C115.362 135.456 116.791 134.709 117.773 133.216C118.797 131.723 119.309 129.675 119.309 127.072V123.04C119.309 120.437 118.797 118.411 117.773 116.96C116.791 115.467 115.362 114.72 113.485 114.72ZM132.471 114.272V112.48H150.007V114.272L146.487 114.72C145.804 114.805 145.399 114.997 145.271 115.296C145.143 115.552 145.079 116.405 145.079 117.856V150.624C145.079 152.075 145.143 152.949 145.271 153.248C145.399 153.504 145.804 153.675 146.487 153.76L150.007 154.208V156H132.471V154.208L135.991 153.76C136.673 153.675 137.079 153.504 137.207 153.248C137.335 152.949 137.399 152.075 137.399 150.624V117.856C137.399 116.405 137.335 115.552 137.207 115.296C137.079 114.997 136.673 114.805 135.991 114.72L132.471 114.272ZM183.501 144.992H185.293V156H155.213V154.4L175.949 114.72H163.533C162.552 114.72 161.827 114.763 161.357 114.848C160.931 114.891 160.653 115.04 160.525 115.296C160.397 115.509 160.248 115.872 160.077 116.384L158.029 123.488H156.237V112.48H184.653V114.08L163.917 153.76H177.997C179.021 153.76 179.747 153.739 180.173 153.696C180.6 153.611 180.877 153.461 181.005 153.248C181.176 152.992 181.325 152.608 181.453 152.096L183.501 144.992ZM218.439 144.992H220.231V156H190.151V154.4L210.887 114.72H198.471C197.489 114.72 196.764 114.763 196.295 114.848C195.868 114.891 195.591 115.04 195.463 115.296C195.335 115.509 195.185 115.872 195.015 116.384L192.967 123.488H191.175V112.48H219.591V114.08L198.855 153.76H212.935C213.959 153.76 214.684 153.739 215.111 153.696C215.537 153.611 215.815 153.461 215.943 153.248C216.113 152.992 216.263 152.608 216.391 152.096L218.439 144.992ZM234.624 154.208V156H222.272V154.208L225.792 153.76C226.262 153.675 226.603 153.589 226.816 153.504C227.03 153.376 227.222 153.099 227.392 152.672C227.563 152.245 227.798 151.563 228.096 150.624L240.32 112.48H245.824L258.112 150.624C258.411 151.563 258.646 152.245 258.816 152.672C258.987 153.099 259.179 153.376 259.392 153.504C259.648 153.589 259.99 153.675 260.416 153.76L263.936 154.208V156H246.272V154.208L249.792 153.76C250.475 153.675 250.838 153.504 250.88 153.248C250.966 152.949 250.774 152.075 250.304 150.624L247.872 142.688H233.088L230.592 150.624C230.166 152.075 229.974 152.949 230.016 153.248C230.059 153.504 230.422 153.675 231.104 153.76L234.624 154.208ZM233.856 140.448H247.168L240.576 119.2L233.856 140.448Z" fill="black"/>
<rect x="28.5" y="175.5" width="299" height="9" stroke="black"/>
<rect x="29" y="176" width="100" height="8" fill="#009A48"/>
<rect x="228" y="176" width="100" height="8" fill="#D72C39"/>
</svg>
